<svg id="_0487_online_protection" xmlns="http://www.w3.org/2000/svg" xmlns:xlink="http://www.w3.org/1999/xlink" viewBox="0 0 500 500" data-imageid="cybersecurity-1-1" imageName="Cybersecurity 1" class="illustrations_image" style="width: 188px;"><defs><style>.cls-1_cybersecurity-1-1{opacity:.1;}.cls-1_cybersecurity-1-1,.cls-2_cybersecurity-1-1,.cls-3_cybersecurity-1-1,.cls-4_cybersecurity-1-1,.cls-5_cybersecurity-1-1,.cls-6_cybersecurity-1-1,.cls-7_cybersecurity-1-1,.cls-8_cybersecurity-1-1,.cls-9_cybersecurity-1-1,.cls-10_cybersecurity-1-1,.cls-11_cybersecurity-1-1,.cls-12_cybersecurity-1-1,.cls-13_cybersecurity-1-1,.cls-14_cybersecurity-1-1,.cls-15_cybersecurity-1-1,.cls-16_cybersecurity-1-1{stroke-width:0px;}.cls-1_cybersecurity-1-1,.cls-3_cybersecurity-1-1,.cls-4_cybersecurity-1-1,.cls-17_cybersecurity-1-1{isolation:isolate;}.cls-1_cybersecurity-1-1,.cls-16_cybersecurity-1-1{fill:#020202;}.cls-2_cybersecurity-1-1{fill:url(#linear-gradient);}.cls-3_cybersecurity-1-1,.cls-4_cybersecurity-1-1,.cls-15_cybersecurity-1-1{fill:#68e1fd;}.cls-3_cybersecurity-1-1,.cls-17_cybersecurity-1-1{opacity:.18;}.cls-4_cybersecurity-1-1{opacity:.35;}.cls-17_cybersecurity-1-1{fill:none;stroke:#fff;stroke-miterlimit:10;stroke-width:1.47px;}.cls-18_cybersecurity-1-1{opacity:.27;}.cls-5_cybersecurity-1-1{fill:url(#linear-gradient-4-cybersecurity-1-1);}.cls-6_cybersecurity-1-1{fill:url(#linear-gradient-2-cybersecurity-1-1);}.cls-7_cybersecurity-1-1{fill:url(#linear-gradient-3-cybersecurity-1-1);}.cls-8_cybersecurity-1-1{fill:url(#linear-gradient-5-cybersecurity-1-1);}.cls-9_cybersecurity-1-1{fill:url(#linear-gradient-6-cybersecurity-1-1);}.cls-10_cybersecurity-1-1{fill:#473f47;}.cls-11_cybersecurity-1-1{fill:#231f20;}.cls-12_cybersecurity-1-1{fill:#e0a091;}.cls-13_cybersecurity-1-1{fill:#fff;}.cls-14_cybersecurity-1-1{fill:#ffbaa8;}</style><linearGradient id="linear-gradient-cybersecurity-1-1" x1="964.53" y1="2195.74" x2="755.94" y2="2086.48" gradientTransform="translate(-477.08 2318.96) scale(1 -1)" gradientUnits="userSpaceOnUse"><stop offset="0" stop-color="#000"/><stop offset="1" stop-color="#000" stop-opacity="0"/></linearGradient><linearGradient id="linear-gradient-2-cybersecurity-1-1" x1="419.97" y1="2014.96" x2="773.42" y2="2086.15" xlink:href="#linear-gradient-cybersecurity-1-1"/><linearGradient id="linear-gradient-3-cybersecurity-1-1" x1="549.54" y1="2137.94" x2="688.21" y2="2212.48" gradientTransform="translate(-471 2323.65) scale(1 -1)" xlink:href="#linear-gradient-cybersecurity-1-1"/><linearGradient id="linear-gradient-4-cybersecurity-1-1" x1="659.84" y1="2208.19" x2="673.02" y2="2212.46" gradientTransform="translate(-471 2323.65) scale(1 -1)" xlink:href="#linear-gradient-cybersecurity-1-1"/><linearGradient id="linear-gradient-5-cybersecurity-1-1" x1="662.97" y1="2208.49" x2="675.19" y2="2216.37" gradientTransform="translate(-471 2323.65) scale(1 -1)" xlink:href="#linear-gradient-cybersecurity-1-1"/><linearGradient id="linear-gradient-6-cybersecurity-1-1" x1="666.48" y1="2211.42" x2="678.7" y2="2219.32" gradientTransform="translate(-471 2323.65) scale(1 -1)" xlink:href="#linear-gradient-cybersecurity-1-1"/></defs><g id="background_cybersecurity-1-1"><path class="cls-3_cybersecurity-1-1 targetColor" d="M229.34,54.24c13.23,2.04,26.11,5.95,38.25,11.61,16.83,8.06,30.72,20.44,46.54,30.08,26.96,16.42,59.24,25.7,89.88,32.13,12.24,2.59,24.63,4.99,35.65,10.82,16.83,8.93,28.88,25.14,37.27,42.32,18.36,37.71,21.71,83.46,5.37,122.16-15.97,37.62-52.46,69.4-93.92,73.44-52.32,5.37-104.63,15.62-157.05,22.11-36.4,5.39-72.95,10.71-109.74,11.18-15.3.17-31-.58-45.58-5.52-27.36-9.32-52.06-28.52-62.77-55.93-8.69-22.46-7.94-47.49,2.1-69.38,6.12-13.3,15.64-25.03,20.09-38.98,4.02-12.61,3.58-25.92,2.97-38.97-.76-12.15.77-24.34,4.51-35.92,7.25-23.7,18.68-46.36,34.82-65.21,19.89-23.33,47.27-40.8,77.43-46.43,11.67-1.96,23.5-2.8,35.33-2.49,13.01,0,26,1,38.86,3Z" style="fill: rgb(12, 65, 147);"/><ellipse class="cls-4_cybersecurity-1-1 targetColor" cx="240.54" cy="328.24" rx="147.22" ry="24.26" style="fill: rgb(12, 65, 147);"/></g><g id="character_cybersecurity-1-1"><path class="cls-14_cybersecurity-1-1" d="M147.55,313.31c-.05,1.53.24,3.06.84,4.47.74,1.33,1.88,2.39,3.24,3.06,2.93,1.51,6.33,1.85,9.5.93.43-.09.82-.32,1.1-.66.15-.29.22-.62.18-.95-.24-1.75-1.12-3.34-2.48-4.47-1.36-1.1-2.52-2.43-3.43-3.92-1.53-2.94-.37-10.71-5.91-9.52-4.62.96-3.18,7.73-3.06,11.05Z"/><path class="cls-15_cybersecurity-1-1 targetColor" d="M146.79,318.56s-.78,1.93.18,3.06,10.91,7.31,17.61,2.34-9.09-5.63-9.09-5.63l-8.71.23Z" style="fill: rgb(12, 65, 147);"/><path class="cls-13_cybersecurity-1-1" d="M147.19,314.05c.63-.3,1.39-.1,1.79.47,1.34,1.49,3.35,2.19,5.32,1.85,2.17-.52,3.06-3.06,4.13-3.06s6.88,4.93,7.21,7.04-2.63,3.67-5.91,3.87-10.71-2.05-12.07-3.78c-1.19-1.93-1.37-4.31-.47-6.4Z"/><path class="cls-14_cybersecurity-1-1" d="M128.57,316.28c-.05,1.53.24,3.06.84,4.47.75,1.33,1.88,2.4,3.26,3.06,2.93,1.52,6.32,1.85,9.49.93.45-.1.85-.35,1.13-.72.15-.29.22-.62.18-.95-.24-1.75-1.12-3.34-2.48-4.47-1.36-1.1-2.52-2.43-3.43-3.92-1.45-2.94-.37-10.71-5.91-9.5-4.65,1.07-3.21,7.83-3.09,11.09Z"/><path class="cls-15_cybersecurity-1-1 targetColor" d="M127.8,321.59s-.78,1.93.18,3.06,10.91,7.31,17.61,2.34c6.7-4.97-9.09-5.63-9.09-5.63l-8.71.23Z" style="fill: rgb(12, 65, 147);"/><path class="cls-13_cybersecurity-1-1" d="M128.2,317.09c.63-.31,1.39-.12,1.79.46,1.33,1.5,3.34,2.21,5.32,1.88,2.17-.52,3.06-3.06,4.15-3.06s6.87,4.93,7.19,7.04-2.63,3.67-5.91,3.87-10.71-2.05-12.07-3.78c-1.2-1.93-1.38-4.33-.47-6.41Z"/><path class="cls-10_cybersecurity-1-1" d="M124.62,234.55s-1.04,56.87,3.17,75.84l10.71,1.32,7.4-77.86-21.28.7Z"/><path class="cls-10_cybersecurity-1-1" d="M157.63,228.34s5.03,30.6-1.07,79.94l-10.71,1.33-7.4-77.87,19.19-3.4Z"/><path class="cls-13_cybersecurity-1-1" d="M156.66,204.35c0,1.03.14,2.07.14,3.06,0,5.68-1.32,11.52.38,17.09.55,1.19.71,2.51.46,3.79-.48,1.03-1.33,1.84-2.37,2.28-5,2.74-10.71,3.58-16.43,4.38-4.24.6-10.27,1.85-14.18-.43-1.49-1.11-2.49-2.75-2.78-4.59-1.5-5.86-2.39-11.86-2.65-17.9,0-.8-.11-1.53-.15-2.36-.32-5.45-.44-10.88-.34-16.31,0-3.95.4-8.22,2.97-11.2,3.43-3.96,10.05-6.59,15.09-7.51,1.64-.33,3.31-.41,4.97-.24,2.35.38,4.61,1.15,6.7,2.28,2.51,1.24,4.73,2.28,5.95,4.74,1.35,2.86,2.29,5.89,2.8,9.01.45,2.92.5,5.89.15,8.83-.15,1.44-.52,2.86-.66,4.3-.03.26-.03.52-.05.78Z"/><path class="cls-13_cybersecurity-1-1" d="M151.91,178.68l14.98,7.99,31.7-11.26,5.51,13.56s-29.07,14.87-34.68,14.93-20.38-4.02-20.38-4.02l2.88-21.19Z"/><path class="cls-1_cybersecurity-1-1" d="M165.05,195.23c-1.7-.2-10.19-4.42-11.12-5.13,1.3,2.74,3.06,11.24,3.35,11.41,3.2,1.6,6.68,2.56,10.25,2.83,3.58.26,7.17-.41,10.4-1.96,1.59-.93,3.23-1.77,4.91-2.52,1.01-.38,2.07-.6,3.06-.93,2.65-1,5.13-2.38,7.39-4.08.74-.37,1.3-1.03,1.53-1.82.15-1.01-.75-1.87-1.67-2.31-1.45-.63-3.01-.96-4.59-.96-2.08-.27-4.18-.22-6.24.14-1.3.37-2.26,1.53-3.53,2.16-3.67,1.61-9.76,3.64-13.74,3.18Z"/><path class="cls-1_cybersecurity-1-1" d="M133.51,236.49c-1.65.47-5.45-1.03-6.7-1.25-.76-.12-1.53-.5-2.19-.69-3.76-.93-4.21-11.49-4.59-14.34-.98-7.51-2.48-15.3-2.57-22.83-.16-2.9.17-5.81.99-8.6.86-2.82,2.93-5.12,5.65-6.27.53-.22,1.11-.28,1.67-.17,2.28.58,2.75,4.36,3.15,6.12.69,3.21,2.25,4.68,3.84,7.25s1.7,5.78,3.21,8.43c.37.74.89,1.4,1.53,1.93,1.29.75,2.8,1.07,4.28.9h10.8c.87-.12,1.75.1,2.46.61.63.83.87,1.89.64,2.91l-.66,7.99c.01.35-.08.69-.26.99-.31.32-.72.52-1.16.57-2.96.43-5.83,1.31-8.52,2.62-2.61,1.79-5.39,3.33-8.29,4.59-.84.38-1.6.89-2.26,1.53-.77.96-1.16,2.18-1.09,3.41,0,.78.99,3.18.7,3.75-.13.26-.36.46-.64.55Z"/><path class="cls-14_cybersecurity-1-1" d="M145.06,169.97c-.6.66-1.42,1.08-2.31,1.16-.74.07-1.49.07-2.23,0h-.41c-.1-.03-.21-.03-.31,0-.09.09-.14.21-.14.34-.13,1.49-.13,2.98,0,4.47h0v.81c.08.27.08.57,0,.84-.21.3-.54.51-.9.58-.65.22-1.33.34-2.02.35-1.48-.11-2.91-.58-4.16-1.38.11-2.56-.03-5.12-.4-7.65-.47-3.26-1.33-6.52-.98-9.79.09-1.28.57-2.5,1.38-3.5,1.3-1.23,3.06-1.87,4.85-1.74,2.35-.03,4.65.6,6.66,1.82.73.5.81,1.15.98,1.97.26,1.29.46,2.59.61,3.89s.24,2.97.28,4.47c.12,1.19-.2,2.39-.89,3.37Z"/><path class="cls-11_cybersecurity-1-1" d="M142.46,157.02c-1.53.41-3.5,0-5.05.67-2.19,1.12-3.22,3.69-2.42,6.01-.63.23-.75-.92-1.24-1.38s-1.53.15-1.67.95c.04.8.28,1.58.69,2.26.6,1.41.71,2.98.31,4.45-.11.35-.37.76-.7.67s-.6-.69-.81-.95c-.34-.41-.71-.79-1.12-1.13-.76-.67-1.62-1.27-2.42-1.93s-1.09-1.29-2-1.53c-.87-.17-1.75-.28-2.63-.32-2.07-.4-3.42-2.4-3.02-4.46.16-.81.57-1.55,1.18-2.1.3-.21.56-.48.75-.8.12-.36.15-.73.09-1.1.04-1.96,1.06-3.77,2.72-4.82,1.64-1.03,3.54-1.56,5.48-1.53.42.03.84-.02,1.24-.15.37-.19.71-.44.99-.73,3.05-2.58,7.62-2.2,10.2.85.31.37.58.76.82,1.19.62,1.05.87,2.28.69,3.49-.11,1.16-.95,2.12-2.08,2.39Z"/><path class="cls-12_cybersecurity-1-1" d="M140.51,171.18h-.41c-.1-.03-.21-.03-.31,0-.09.09-.14.21-.14.34-.13,1.49-.13,2.98,0,4.47h0c-2.71-.86-4.43-3.51-4.13-6.33,1.62.68,3.31,1.2,5.03,1.53h-.05Z"/><path class="cls-13_cybersecurity-1-1" d="M123.06,182.71h0c4.22-1.5,8.86.71,10.35,4.93l7.34,20.69c1.5,4.22-.71,8.86-4.93,10.35h0c-4.22,1.5-8.86-.71-10.35-4.93l-7.34-20.69c-1.5-4.22.71-8.86,4.93-10.35Z"/><path class="cls-15_cybersecurity-1-1 targetColor" d="M355.94,188.26c-6.56,123.04-88.9,155.2-88.9,155.2-91.41-54.47-90.95-160.83-90.95-160.83,58.26-15.73,91.58-47.9,92.62-48.96h0c21.72,31.65,87.24,54.59,87.24,54.59Z" style="fill: rgb(12, 65, 147);"/><path class="cls-2_cybersecurity-1-1" d="M355.94,187.77c-6.56,123.04-88.9,155.2-88.9,155.2-91.41-54.47-90.95-160.83-90.95-160.83,58.29-15.7,91.61-47.83,92.65-48.9h0c21.69,31.67,87.21,54.53,87.21,54.53Z"/><path class="cls-14_cybersecurity-1-1" d="M167.76,198.57c.76-.57,1.53-1.19,2.17-1.81,1.66-1.5,3.54-2.74,5.57-3.69,2.04-.95,4.32-1.24,6.53-.83.47.09,1.04.38.98.87s-.34.52-.63.67c-1.29.71-2.65,1.29-4.05,1.71-.58.17-1.25.38-1.53.95.47.05.95,0,1.39-.17,1.74-.44,3.55-.57,5.34-.38.17,0,.37,0,.46.21s0,.46-.28.6c-1.71,1.36-4.28,1.27-5.92,2.74-.29.24-.5.76-.18.96.13.05.28.05.41,0,.7,0,1.39-.29,2.1-.41,1.12-.22,2.28-.25,3.41-.09.15,0,.3.07.4.18.17.26-.18.55-.46.69l-5.92,2.59c.81.07,1.63.07,2.45,0,.83-.05,1.65.21,2.29.73.05.03.09.08.09.14,0,.11,0,.17-.17.21-.95.51-1.99.82-3.06.92-.64.05-1.27.16-1.88.34-.37.14-.74.3-1.09.49-1.14.6-2.37,1.02-3.64,1.22-1.28.22-2.59,0-3.73-.61-.31-.19-.63-.36-.96-.49-1.22-.34-2.59.93-3.72.34-.38-.26-.69-.61-.89-1.03-.61-1.01-2.66-3.82-1.01-4.76.93-.36,1.88-.67,2.85-.92.94-.36,1.84-.83,2.68-1.39Z"/><path class="cls-13_cybersecurity-1-1" d="M142.15,201.83l20.26-1.94,3.27,9.88s-29.6,12.04-35.36,8.69-.41-8.81-.41-8.81c0,0,.67-8.02,12.24-7.82Z"/><path class="cls-15_cybersecurity-1-1 targetColor" d="M345.31,194.22c-5.8,108.44-78.36,136.79-78.36,136.79-80.57-48.01-80.17-141.75-80.17-141.75,51.36-13.86,80.72-42.23,81.64-43.1h0c19.12,27.92,76.89,48.05,76.89,48.05Z" style="fill: rgb(12, 65, 147);"/><path class="cls-6_cybersecurity-1-1" d="M268.43,146.15l-1.53,184.86c-80.57-48.01-80.17-141.75-80.17-141.75,51.36-13.86,80.72-42.23,81.64-43.1l.06-.02Z"/><circle class="cls-10_cybersecurity-1-1" cx="266.95" cy="225.4" r="14.21"/><polygon class="cls-10_cybersecurity-1-1" points="258.4 260.85 273.71 260.85 269.36 238.09 263.78 238.09 258.4 260.85"/><polyline class="cls-17_cybersecurity-1-1" points="190.65 220.2 208.93 220.2 208.93 206.94 223.42 206.94"/><polyline class="cls-17_cybersecurity-1-1" points="194.23 234.41 218.04 234.41 218.04 263.36 232.94 263.36"/><polyline class="cls-17_cybersecurity-1-1" points="343.8 211.19 313.66 211.19 313.66 194.1 286.74 194.1"/><polyline class="cls-17_cybersecurity-1-1" points="338.18 239.62 308.82 239.62 308.82 269.71 288.12 269.71"/><polyline class="cls-17_cybersecurity-1-1" points="223.42 292.58 248.05 292.58 248.05 281.02 262.95 281.02"/><path class="cls-14_cybersecurity-1-1" d="M205.49,176.8c.6.22,1.27.09,1.73-.35.67-.78.14-1.96-.41-2.83.52-.4,1.27.11,1.67.64s.87,1.18,1.53,1.1,1.03-.98.86-1.65c-.26-.66-.6-1.28-.99-1.87.29-.4.93,0,1.19.38s.61.96,1.09.86c.39-.17.59-.6.47-1.01-.12-.4-.2-.8-.26-1.21.81-.26,1.74.58,2.49.18.52-.38.62-1.11.24-1.63-.03-.04-.05-.07-.09-.1-.48-.47-1.11-.76-1.77-.84-1.65-.35-3.37-.15-4.9.58-1.76.7-3.6,1.07-5.31,1.96-1.58.67-2.98,1.72-4.05,3.06-.18.31-.09.7.2.9.23.08.48.08.7,0,1.22-.23,2.47-.02,3.55.6.58.4,1.18.77,1.81,1.1l.26.12Z"/></g><g id="data_cybersecurity-1-1"><path class="cls-13_cybersecurity-1-1" d="M433.69,186.33c-16.65-35.49-93.2-62.39-184.85-62.39-103.79,0-188.18,34.48-188.18,76.88s84.44,76.88,188.18,76.88c70.74,0,132.49-16.02,164.65-39.64,4.63-3.34,8.88-7.18,12.67-11.44,4.99-5.39,8.51-11.98,10.2-19.12.46-2.19.7-4.43.7-6.67-.04-5.02-1.19-9.97-3.38-14.49ZM424.68,226.47c-3.3,3.62-6.94,6.92-10.86,9.85-31.49,23.84-93.63,40.08-165,40.08-103.07,0-186.94-33.9-186.94-75.59s83.87-75.61,186.97-75.61c90.48,0,166.15,26.13,183.3,60.71,2.36,4.62,3.6,9.72,3.64,14.9,0,1.81-.16,3.62-.49,5.4-1.25,7.07-4.9,13.86-10.62,20.26Z"/><path class="cls-3_cybersecurity-1-1 targetColor" d="M439.42,197.33c-.11-1.24-.3-2.47-.55-3.69-.46-2.17-1.12-4.29-1.96-6.35l-.28-.09c-.96-.31-1.96-.58-2.94-.87-16.65-35.49-93.2-62.39-184.85-62.39-103.79,0-188.18,34.48-188.18,76.88s84.44,76.88,188.18,76.88c70.74,0,132.49-16.02,164.65-39.64-.06.93.25,1.84.87,2.54,5.82-4.1,11.05-8.98,15.56-14.49,3.65-4.45,6.41-9.55,8.14-15.04,1.02-3.32,1.53-6.77,1.53-10.24,0-1.17-.06-2.34-.18-3.5ZM248.85,276.41c-103.07,0-186.94-33.9-186.94-75.59s83.84-75.61,186.94-75.61c90.48,0,166.15,26.13,183.3,60.71-.89-.17-1.82-.02-2.6.44,2.37,4.45,3.64,9.41,3.69,14.46,0,1.17-.07,2.33-.21,3.49-.9,7.37-4.59,14.6-11.02,21.42-2.41,2.57-5,4.94-7.77,7.11.19.66.19,1.35,0,2-.14.49-.29.98-.43,1.53-31.47,23.79-93.62,40.04-164.96,40.04Z" style="fill: rgb(12, 65, 147);"/><path class="cls-3_cybersecurity-1-1 targetColor" d="M432.12,185.92c-.89-.17-1.82-.02-2.6.44-7.04-13.63-24.04-26.3-49.54-36.61-35.05-14.17-81.64-21.97-131.13-21.97s-96.13,7.8-131.18,21.97c-34.35,13.88-53.24,31.99-53.24,51.07s18.89,37.18,53.21,51.05c35.05,14.18,81.64,21.98,131.18,21.98s96.11-7.8,131.16-21.98c14.09-5.69,25.57-12.09,34.22-19.02.19.66.19,1.35,0,2-.14.49-.29.98-.43,1.53-31.49,23.84-93.63,40.08-165,40.08-103.07,0-186.94-33.9-186.94-75.59s83.92-75.67,187.02-75.67c90.45,0,166.12,26.13,183.27,60.71Z" style="fill: rgb(12, 65, 147);"/><path class="cls-3_cybersecurity-1-1 targetColor" d="M436.91,187.29l-.28-.09c-.96-.31-1.96-.58-2.94-.87-16.65-35.49-93.2-62.39-184.85-62.39-103.79,0-188.18,34.48-188.18,76.88s84.44,76.88,188.18,76.88c70.74,0,132.49-16.02,164.65-39.64-.06.93.25,1.84.87,2.54-9.81,6.87-20.39,12.55-31.53,16.94-35.91,14.66-83.5,22.72-133.99,22.72s-98.11-8.06-133.99-22.72c-36.63-14.96-56.79-35.11-56.79-56.71s20.13-41.75,56.76-56.7c35.88-14.67,83.53-22.73,134.02-22.73s98.11,8.06,133.99,22.73c28.82,11.78,47.46,26.77,54.07,43.17Z" style="fill: rgb(12, 65, 147);"/><polygon class="cls-13_cybersecurity-1-1" points="208.15 146.93 172.09 146.93 172.09 102.41 203.18 102.41 208.15 108.76 208.15 146.93"/><polygon class="cls-13_cybersecurity-1-1" points="204.95 149.56 168.89 149.56 168.89 105.04 199.98 105.04 204.95 111.39 204.95 149.56"/><polygon class="cls-7_cybersecurity-1-1" points="204.65 149.87 168.59 149.87 168.59 105.35 199.68 105.35 204.65 111.7 204.65 149.87"/><polygon class="cls-13_cybersecurity-1-1" points="201.48 153.56 165.42 153.56 165.42 109.02 196.51 109.02 201.48 115.37 201.48 153.56"/><polygon class="cls-5_cybersecurity-1-1" points="196.51 109.02 196.51 115.31 201.48 115.31 196.51 109.02"/><polygon class="cls-8_cybersecurity-1-1" points="199.68 105.35 199.68 111.82 204.65 111.82 199.68 105.35"/><polygon class="cls-9_cybersecurity-1-1" points="203.18 102.41 203.18 108.88 208.15 108.88 203.18 102.41"/><g id="Q83r0t_cybersecurity-1-1"><path class="cls-15_cybersecurity-1-1 targetColor" d="M436.92,240.67c-.97-.25-1.79-.88-2.26-1.76-.37-.63-.7-1.29-1.07-1.91-.65-1.29-2.05-2.01-3.47-1.79-1.45.09-2.68,1.1-3.06,2.51-.23.75-.41,1.53-.67,2.25-.61,1.93-2.65,3.01-4.59,2.43l-4.21-1.24c-1.99-.54-3.17-2.59-2.63-4.58,0-.03.02-.07.03-.1.2-.76.46-1.53.64-2.26.4-1.35-.1-2.8-1.24-3.63-1.04-.91-2.55-1.06-3.75-.37-.66.32-1.29.7-1.93,1.04-1.84,1.03-4.16.37-5.18-1.47-.01-.02-.02-.04-.03-.06-.73-1.33-1.53-2.65-2.19-3.98-1.04-1.75-.46-4.01,1.29-5.05.08-.05.16-.09.24-.13.61-.35,1.25-.66,1.85-1.01,1.23-.63,1.94-1.96,1.77-3.34-.05-1.42-1.01-2.65-2.37-3.06-.73-.24-1.53-.43-2.25-.67-1.99-.52-3.19-2.57-2.66-4.56.03-.11.07-.23.11-.34.38-1.33.76-2.66,1.16-3.99.5-1.93,2.45-3.1,4.39-2.65.8.15,1.53.41,2.34.63,1.83.62,3.82-.36,4.44-2.19.34-1,.21-2.09-.34-2.98-.34-.6-.67-1.19-.98-1.79-.96-1.77-.3-3.98,1.46-4.94.02-.01.04-.02.07-.04,1.42-.81,2.86-1.53,4.33-2.33,1.81-.89,3.99-.22,4.99,1.53.38.66.72,1.33,1.1,1.99.65,1.22,2,1.9,3.37,1.7,1.41-.09,2.61-1.06,2.98-2.42.23-.69.41-1.41.63-2.1.52-2.03,2.59-3.25,4.62-2.73.11.03.22.06.32.1l3.92,1.15c2.03.5,3.26,2.55,2.76,4.57-.02.07-.03.13-.05.2-.18.67-.4,1.36-.6,2.03-.49,1.38-.02,2.92,1.15,3.79,1.11.95,2.71,1.08,3.96.32.6-.32,1.19-.67,1.79-.98,1.85-1.01,4.16-.32,5.17,1.52,0,0,0,0,0,0,.76,1.36,1.53,2.74,2.26,4.12.99,1.78.36,4.02-1.42,5.02-.04.02-.08.04-.11.06-.66.37-1.35.69-2,1.07-1.13.59-1.8,1.79-1.71,3.06,0,1.36.83,2.58,2.1,3.06.76.31,1.53.5,2.39.75,1.85.42,3.02,2.26,2.6,4.11-.03.11-.06.23-.09.34-.4,1.53-.84,3.06-1.33,4.59-.48,1.89-2.41,3.03-4.3,2.55-.12-.03-.25-.07-.37-.12-.7-.2-1.39-.43-2.11-.6-1.33-.36-2.74.16-3.53,1.29-.88,1.03-1.01,2.52-.32,3.69.35.67.75,1.33,1.1,1.99,1,1.78.36,4.04-1.43,5.04-.03.02-.07.04-.1.06-1.36.76-2.74,1.53-4.12,2.25-.86.49-1.89.62-2.85.34ZM416.25,210.44c-1.9,6.42,1.77,13.16,8.18,15.05,6.42,1.9,13.16-1.77,15.05-8.18,1.9-6.42-1.77-13.16-8.18-15.05,0,0,0,0,0,0-6.4-1.91-13.13,1.73-15.04,8.13,0,.02-.01.04-.02.06h0Z" style="fill: rgb(12, 65, 147);"/></g><g id="Q83r0t-2_cybersecurity-1-1" class="cls-18_cybersecurity-1-1"><path class="cls-16_cybersecurity-1-1" d="M436.92,240.67c-.97-.25-1.79-.88-2.26-1.76-.37-.63-.7-1.29-1.07-1.91-.65-1.29-2.05-2.01-3.47-1.79-1.45.09-2.68,1.1-3.06,2.51-.23.75-.41,1.53-.67,2.25-.61,1.93-2.65,3.01-4.59,2.43l-4.21-1.24c-1.99-.54-3.17-2.59-2.63-4.58,0-.03.02-.07.03-.1.2-.76.46-1.53.64-2.26.4-1.35-.1-2.8-1.24-3.63-1.04-.91-2.55-1.06-3.75-.37-.66.32-1.29.7-1.93,1.04-1.84,1.03-4.16.37-5.18-1.47-.01-.02-.02-.04-.03-.06-.73-1.33-1.53-2.65-2.19-3.98-1.04-1.75-.46-4.01,1.29-5.05.08-.05.16-.09.24-.13.61-.35,1.25-.66,1.85-1.01,1.23-.63,1.94-1.96,1.77-3.34-.05-1.42-1.01-2.65-2.37-3.06-.73-.24-1.53-.43-2.25-.67-1.99-.52-3.19-2.57-2.66-4.56.03-.11.07-.23.11-.34.38-1.33.76-2.66,1.16-3.99.5-1.93,2.45-3.1,4.39-2.65.8.15,1.53.41,2.34.63,1.83.62,3.82-.36,4.44-2.19.34-1,.21-2.09-.34-2.98-.34-.6-.67-1.19-.98-1.79-.96-1.77-.3-3.98,1.46-4.94.02-.01.04-.02.07-.04,1.42-.81,2.86-1.53,4.33-2.33,1.81-.89,3.99-.22,4.99,1.53.38.66.72,1.33,1.1,1.99.65,1.22,2,1.9,3.37,1.7,1.41-.09,2.61-1.06,2.98-2.42.23-.69.41-1.41.63-2.1.52-2.03,2.59-3.25,4.62-2.73.11.03.22.06.32.1l3.92,1.15c2.03.5,3.26,2.55,2.76,4.57-.02.07-.03.13-.05.2-.18.67-.4,1.36-.6,2.03-.49,1.38-.02,2.92,1.15,3.79,1.11.95,2.71,1.08,3.96.32.6-.32,1.19-.67,1.79-.98,1.85-1.01,4.16-.32,5.17,1.52,0,0,0,0,0,0,.76,1.36,1.53,2.74,2.26,4.12.99,1.78.36,4.02-1.42,5.02-.04.02-.08.04-.11.06-.66.37-1.35.69-2,1.07-1.13.59-1.8,1.79-1.71,3.06,0,1.36.83,2.58,2.1,3.06.76.31,1.53.5,2.39.75,1.85.42,3.02,2.26,2.6,4.11-.03.11-.06.23-.09.34-.4,1.53-.84,3.06-1.33,4.59-.48,1.89-2.41,3.03-4.3,2.55-.12-.03-.25-.07-.37-.12-.7-.2-1.39-.43-2.11-.6-1.33-.36-2.74.16-3.53,1.29-.88,1.03-1.01,2.52-.32,3.69.35.67.75,1.33,1.1,1.99,1,1.78.36,4.04-1.43,5.04-.03.02-.07.04-.1.06-1.36.76-2.74,1.53-4.12,2.25-.86.49-1.89.62-2.85.34ZM416.25,210.44c-1.9,6.42,1.77,13.16,8.18,15.05,6.42,1.9,13.16-1.77,15.05-8.18,1.9-6.42-1.77-13.16-8.18-15.05,0,0,0,0,0,0-6.4-1.91-13.13,1.73-15.04,8.13,0,.02-.01.04-.02.06h0Z"/></g><g id="Q83r0t-3_cybersecurity-1-1"><path class="cls-15_cybersecurity-1-1 targetColor" d="M452.33,215.84c-.78-.24-1.61-.43-2.37-.75-1.27-.48-2.1-1.7-2.1-3.06-.08-1.27.6-2.47,1.73-3.06.64-.37,1.33-.7,1.99-1.07,1.81-.93,2.52-3.16,1.59-4.97-.02-.04-.04-.08-.06-.11-.73-1.38-1.53-2.75-2.26-4.1-1-1.85-3.32-2.54-5.16-1.53,0,0,0,0,0,0l-1.79.98c-1.25.76-2.85.64-3.96-.31-.17-.15-.32-.31-.47-.47-.82-.9-1.08-2.18-.67-3.34,0-.11.08-.24.12-.35.15-.57.32-1.12.46-1.68.61-1.96-.47-4.04-2.42-4.67l-.28-.09c-.96-.31-1.96-.58-2.94-.87l-.99-.29-.58-.12c-.89-.17-1.82-.02-2.6.44-.83.51-1.43,1.31-1.7,2.25-.23.7-.41,1.41-.63,2.11-.4,1.37-1.63,2.34-3.06,2.4-1.36.2-2.71-.47-3.37-1.68-.4-.66-.72-1.33-1.1-2-.99-1.75-3.17-2.42-4.97-1.53-1.53.72-2.92,1.53-4.34,2.31-1.79.92-2.49,3.12-1.57,4.91.01.02.02.04.04.07.31.61.66,1.19.98,1.79.82,1.25.72,2.89-.23,4.04-.91,1.18-2.47,1.64-3.87,1.15-.78-.23-1.53-.49-2.34-.64-1.94-.45-3.89.72-4.39,2.65-.38,1.33-.78,2.66-1.16,4.01-.71,1.93.28,4.06,2.21,4.77.12.04.24.08.36.11.73.26,1.53.41,2.23.67,1.36.41,2.31,1.64,2.37,3.06.18,1.37-.52,2.71-1.76,3.34-.61.35-1.25.67-1.87,1.01-1.82.91-2.57,3.12-1.66,4.94.04.08.09.16.13.24.72,1.33,1.45,2.66,2.19,3.98,1.01,1.86,3.35,2.55,5.21,1.53,0,0,0,0,0,0,.64-.35,1.27-.72,1.93-1.06,1.2-.69,2.7-.54,3.75.37.56.41.98.98,1.21,1.64.19.66.19,1.35,0,2-.14.49-.29.98-.43,1.53l-.23.78c-.31,1.22-.03,2.51.75,3.49.48.58,1.12,1.01,1.85,1.21l4.21,1.22c1.94.57,3.97-.51,4.59-2.43.26-.73.44-1.53.67-2.25.39-1.4,1.61-2.41,3.06-2.51,1.42-.21,2.81.51,3.46,1.79.37.63.7,1.29,1.06,1.93,1.02,1.81,3.29,2.49,5.14,1.53,1.38-.75,2.75-1.53,4.12-2.25,1.81-.93,2.52-3.16,1.59-4.97-.02-.04-.04-.08-.06-.11-.37-.67-.76-1.32-1.1-1.99-.71-1.17-.58-2.65.31-3.69.79-1.13,2.2-1.65,3.53-1.3.72.17,1.41.41,2.11.61,1.83.65,3.84-.3,4.5-2.13.04-.1.07-.2.09-.3.5-1.53.95-3.06,1.35-4.59.68-1.79-.22-3.78-2.01-4.46-.12-.05-.24-.08-.36-.12ZM438.1,217.89c-1.58,5.26-6.47,8.83-11.96,8.72-.49,0-.97-.05-1.45-.14-.55-.08-1.1-.2-1.64-.35-.36-.1-.72-.23-1.07-.38-6.21-2.48-9.23-9.52-6.75-15.73,2.32-5.8,8.68-8.89,14.67-7.11,1.08.32,2.11.79,3.06,1.41.85.53,1.61,1.17,2.28,1.91.39.39.75.82,1.07,1.27.76,1.09,1.35,2.29,1.73,3.56.69,2.22.71,4.6.06,6.84Z" style="fill: rgb(12, 65, 147);"/></g></g></svg>